<?xml version="1.0" standalone="no"?>
<!DOCTYPE svg PUBLIC "-//W3C//DTD SVG 20010904//EN"
 "http://www.w3.org/TR/2001/REC-SVG-20010904/DTD/svg10.dtd">
<svg version="1.0" xmlns="http://www.w3.org/2000/svg"
 width="512.000000pt" height="512.000000pt" viewBox="0 0 512.000000 512.000000"
 preserveAspectRatio="xMidYMid meet">
<metadata>
Created by potrace 1.16, written by Peter Selinger 2001-2019
</metadata>
<g transform="translate(0.000000,512.000000) scale(0.100000,-0.100000)" stroke="none">
<path d="M838 4412 c-52 -32 -58 -61 -58 -282 0 -223 5 -245 63 -280 22 -14
50 -20 90 -20 l57 0 0 -293 c0 -264 2 -296 18 -326 33 -62 65 -71 249 -71
l163 0 0 -140 0 -140 -520 0 -520 0 0 185 0 185 61 0 c69 0 107 18 133 60 13
24 16 62 16 240 0 308 8 300 -295 300 -307 0 -295 12 -295 -302 1 -241 1 -242
57 -280 20 -13 47 -18 96 -18 l67 0 0 -221 c0 -242 4 -259 60 -293 25 -14 87
-16 584 -16 l556 0 0 -130 0 -130 -165 0 c-163 0 -166 0 -190 -25 -33 -32 -33
-78 0 -110 24 -25 27 -25 190 -25 l165 0 0 -150 0 -150 -163 0 c-184 0 -216
-9 -249 -71 -16 -30 -18 -62 -18 -326 l0 -293 -55 0 c-67 0 -109 -20 -135 -63
-18 -29 -20 -51 -20 -235 0 -310 -8 -302 304 -302 l215 0 35 35 c44 44 49 72
44 301 -3 195 -7 207 -65 245 -20 14 -47 19 -95 19 l-68 0 0 265 0 265 135 0
135 0 0 -165 c0 -252 6 -258 243 -263 l157 -4 0 -168 c0 -180 6 -210 47 -229
37 -17 62 -13 88 14 25 24 25 26 25 205 l0 180 140 0 140 0 0 -180 c0 -179 0
-181 25 -205 32 -33 78 -33 110 0 25 24 25 26 25 205 l0 180 140 0 140 0 0
-180 c0 -179 0 -181 25 -205 32 -33 78 -33 110 0 25 24 25 26 25 205 l0 180
140 0 140 0 0 -180 c0 -179 0 -181 25 -205 26 -27 51 -31 88 -14 41 19 47 49
47 229 l0 168 158 4 c236 5 242 11 242 263 l0 165 135 0 135 0 0 -265 0 -265
-67 0 c-49 0 -76 -5 -96 -19 -58 -38 -62 -50 -65 -245 -5 -229 0 -257 44 -301
l35 -35 215 0 c312 0 304 -8 304 302 0 184 -2 206 -20 235 -26 43 -68 63 -135
63 l-55 0 0 293 c0 264 -2 296 -18 326 -33 62 -65 71 -249 71 l-163 0 0 150 0
150 170 0 c168 0 171 0 195 25 33 32 33 78 0 110 -24 25 -27 25 -195 25 l-170
0 0 130 0 130 556 0 c497 0 559 2 584 16 56 34 60 51 60 293 l0 221 68 0 c48
0 75 5 95 18 56 38 56 39 57 280 0 314 12 302 -295 302 -303 0 -295 8 -295
-300 0 -178 3 -216 16 -240 26 -42 64 -60 133 -60 l61 0 0 -185 0 -185 -520 0
-520 0 0 140 0 140 163 0 c184 0 216 9 249 71 16 30 18 62 18 326 l0 293 58 0
c39 0 67 6 89 20 58 35 63 57 63 280 0 308 8 300 -304 300 l-215 0 -35 -35
c-44 -44 -49 -72 -44 -301 3 -195 7 -207 65 -245 20 -14 47 -19 96 -19 l67 0
0 -265 0 -265 -135 0 -135 0 0 165 c0 252 -6 258 -242 263 l-158 4 0 168 c0
180 -6 210 -47 229 -37 17 -62 13 -88 -14 -25 -24 -25 -26 -25 -205 l0 -180
-140 0 -140 0 0 180 c0 179 0 181 -25 205 -15 16 -36 25 -55 25 -19 0 -40 -9
-55 -25 -25 -24 -25 -26 -25 -205 l0 -180 -140 0 -140 0 0 180 c0 179 0 181
-25 205 -15 16 -36 25 -55 25 -19 0 -40 -9 -55 -25 -25 -24 -25 -26 -25 -205
l0 -180 -140 0 -140 0 0 180 c0 179 0 181 -25 205 -26 27 -51 31 -88 14 -41
-19 -47 -49 -47 -229 l0 -168 -157 -4 c-237 -5 -243 -11 -243 -263 l0 -165
-135 0 -135 0 0 265 0 265 68 0 c48 0 75 5 95 19 58 38 62 50 65 245 5 229 0
257 -44 301 l-35 35 -217 0 c-187 0 -221 -3 -244 -18z m382 -282 l0 -140 -140
0 -140 0 0 140 0 140 140 0 140 0 0 -140z m2960 0 l0 -140 -140 0 -140 0 0
140 0 140 140 0 140 0 0 -140z m-3750 -600 l0 -140 -140 0 -140 0 0 140 0 140
140 0 140 0 0 -140z m4540 0 l0 -140 -140 0 -140 0 0 140 0 140 140 0 140 0 0
-140z m-1430 -970 l0 -1010 -980 0 -980 0 0 1010 0 1010 980 0 980 0 0 -1010z
m-2320 -1570 l0 -140 -140 0 -140 0 0 140 0 140 140 0 140 0 0 -140z m2960 0
l0 -140 -140 0 -140 0 0 140 0 140 140 0 140 0 0 -140z"/>
<path d="M1912 3226 l-37 -34 0 -632 0 -632 37 -34 38 -34 610 0 610 0 38 34
37 34 3 281 3 281 -25 25 c-30 30 -74 33 -107 6 -24 -19 -24 -21 -27 -260 l-3
-241 -299 0 -299 0 -3 209 c-3 189 -5 211 -22 230 -18 20 -28 21 -228 21
l-208 0 0 310 0 310 529 0 529 0 4 -121 c3 -113 5 -122 27 -140 33 -27 77 -24
107 6 25 25 25 26 22 186 l-3 161 -37 34 -38 34 -610 0 -610 0 -38 -34z m418
-1056 l0 -150 -150 0 -150 0 0 150 0 150 150 0 150 0 0 -150z"/>
<path d="M283 2420 c-59 -35 -63 -55 -63 -295 l0 -215 -60 0 c-68 0 -108 -16
-139 -56 -20 -25 -21 -39 -21 -249 0 -210 1 -224 21 -249 41 -51 62 -56 269
-56 214 0 246 7 280 62 18 30 20 50 20 243 0 188 -2 213 -19 241 -24 40 -77
64 -140 64 l-51 0 0 185 0 185 175 0 c173 0 176 0 200 25 16 15 25 36 25 55 0
19 -9 40 -25 55 -24 25 -25 25 -232 25 -189 0 -211 -2 -240 -20z m147 -815 l0
-145 -140 0 -140 0 0 145 0 145 140 0 140 0 0 -145z"/>
<path d="M4375 2415 c-16 -15 -25 -36 -25 -55 0 -19 9 -40 25 -55 24 -25 27
-25 195 -25 l170 0 0 -185 0 -185 -51 0 c-63 0 -116 -24 -140 -64 -17 -28 -19
-53 -19 -241 0 -307 -2 -305 300 -305 207 0 228 5 269 56 20 25 21 39 21 249
0 210 -1 224 -21 249 -31 40 -71 56 -139 56 l-60 0 0 218 c0 317 5 312 -300
312 -200 0 -201 0 -225 -25z m595 -810 l0 -145 -140 0 -140 0 0 145 0 145 140
0 140 0 0 -145z"/>
</g>
</svg>
