<?xml version="1.0" standalone="no"?>
<!DOCTYPE svg PUBLIC "-//W3C//DTD SVG 20010904//EN"
 "http://www.w3.org/TR/2001/REC-SVG-20010904/DTD/svg10.dtd">
<svg version="1.0" xmlns="http://www.w3.org/2000/svg"
 width="512.000000pt" height="512.000000pt" viewBox="0 0 512.000000 512.000000"
 preserveAspectRatio="xMidYMid meet">

<g transform="translate(0.000000,512.000000) scale(0.100000,-0.100000)"
fill="#000000" stroke="none">
<path d="M854 4414 c-16 -8 -39 -29 -50 -47 -17 -29 -19 -52 -19 -239 0 -193
1 -208 21 -235 29 -40 80 -63 142 -63 l52 0 0 -302 c1 -328 0 -322 57 -360 24
-15 50 -18 196 -18 l167 0 0 -150 0 -150 -525 0 -525 0 0 190 0 190 56 0 c65
0 111 19 139 58 18 25 20 45 23 232 4 309 3 310 -297 310 -179 0 -196 -2 -228
-21 -59 -37 -63 -55 -63 -280 0 -185 2 -204 20 -234 27 -43 75 -65 144 -65
l56 0 0 -207 c0 -188 2 -211 20 -249 37 -76 17 -74 634 -74 l546 0 0 -135 0
-135 -163 0 c-189 0 -207 -6 -207 -69 0 -69 17 -75 206 -79 l164 -4 0 -154 0
-154 -167 0 c-146 0 -172 -3 -196 -18 -57 -38 -56 -32 -57 -359 l0 -303 -52 0
c-62 0 -113 -23 -142 -63 -20 -27 -21 -42 -21 -235 0 -304 -2 -302 295 -302
212 0 235 5 270 63 18 29 20 51 20 237 0 183 -2 208 -19 236 -25 41 -77 64
-145 64 l-56 0 0 265 0 265 135 0 135 0 0 -156 c0 -251 12 -264 253 -264 l157
0 0 -185 c0 -172 1 -186 20 -205 27 -27 81 -26 106 1 17 19 19 41 22 205 l3
185 142 -3 142 -3 5 -188 c5 -172 7 -190 24 -203 29 -21 80 -18 102 7 17 19
19 41 22 205 l4 184 138 0 138 0 4 -184 c3 -164 5 -186 22 -205 22 -25 73 -28
102 -7 17 13 19 31 24 203 l5 188 142 3 142 3 3 -185 c3 -164 5 -186 22 -205
25 -27 79 -28 106 -1 19 19 20 33 20 205 l0 185 158 0 c240 0 252 13 252 264
l0 156 135 0 135 0 0 -265 0 -265 -56 0 c-68 0 -120 -23 -145 -64 -17 -28 -19
-53 -19 -236 0 -302 -2 -300 290 -300 214 0 241 6 275 63 18 29 20 51 20 239
0 193 -1 208 -21 235 -29 40 -80 63 -141 63 l-53 0 0 303 c-1 327 0 321 -57
359 -24 15 -50 18 -195 18 l-168 0 0 154 0 154 169 4 c194 4 211 10 211 79 0
63 -17 69 -212 69 l-168 0 0 135 0 135 546 0 c617 0 597 -2 634 74 18 38 20
61 20 249 l0 207 56 0 c69 0 117 22 144 65 18 30 20 49 20 234 0 225 -4 243
-63 280 -32 19 -49 21 -228 21 -300 0 -301 -1 -297 -310 3 -187 5 -207 23
-232 28 -39 74 -58 139 -58 l56 0 0 -190 0 -190 -525 0 -525 0 0 150 0 150
168 0 c145 0 171 3 195 18 57 38 56 32 57 360 l0 302 53 0 c61 0 112 23 141
63 20 27 21 42 21 235 0 304 2 302 -297 302 -174 0 -196 -2 -225 -20 -58 -35
-63 -57 -63 -282 0 -181 2 -206 19 -234 25 -41 77 -64 145 -64 l56 0 0 -265 0
-265 -135 0 -135 0 0 156 c0 251 -12 264 -252 264 l-158 0 0 185 c0 172 -1
186 -20 205 -27 27 -81 26 -106 -1 -17 -19 -19 -41 -22 -205 l-3 -185 -142 3
-142 3 -5 188 c-5 172 -7 190 -24 203 -29 21 -80 18 -102 -7 -17 -19 -19 -41
-22 -205 l-4 -184 -138 0 -138 0 -4 184 c-3 164 -5 186 -22 205 -22 25 -73 28
-102 7 -17 -13 -19 -31 -24 -203 l-5 -188 -142 -3 -142 -3 -3 185 c-3 164 -5
186 -22 205 -25 27 -79 28 -106 1 -19 -19 -20 -33 -20 -205 l0 -185 -157 0
c-241 0 -253 -13 -253 -264 l0 -156 -135 0 -135 0 0 265 0 265 56 0 c68 0 120
23 145 64 17 28 19 53 19 236 0 302 2 300 -292 300 -151 0 -200 -4 -224 -16z
m366 -284 l0 -151 -142 3 -143 3 -3 148 -3 147 146 0 145 0 0 -150z m2968 3
l-3 -148 -142 -3 -143 -3 0 151 0 150 145 0 146 0 -3 -147z m-3748 -603 l0
-150 -145 0 -145 0 0 150 0 150 145 0 145 0 0 -150z m4530 0 l0 -150 -145 0
-145 0 0 150 0 150 145 0 145 0 0 -150z m-1420 -970 l0 -1010 -990 0 -990 0 0
1010 0 1010 990 0 990 0 0 -1010z m-2330 -1570 l0 -150 -145 0 -145 0 0 143
c0 79 3 147 7 150 3 4 69 7 145 7 l138 0 0 -150z m2968 -2 l3 -148 -146 0
-145 0 0 150 0 151 143 -3 142 -3 3 -147z"/>
<path d="M1955 3251 c-31 -13 -64 -54 -75 -92 -13 -46 -13 -1152 0 -1200 5
-19 24 -48 41 -65 l30 -29 609 0 609 0 31 30 c47 45 52 81 48 350 -3 222 -5
245 -22 264 -25 27 -79 28 -106 1 -19 -19 -20 -33 -20 -260 l0 -240 -310 0
-310 0 0 214 0 215 -26 20 c-25 20 -39 21 -230 21 l-204 0 0 315 0 315 540 0
540 0 0 -120 c0 -107 2 -122 20 -140 27 -27 81 -26 106 1 16 18 20 40 22 143
5 142 -6 191 -48 231 l-31 30 -597 2 c-328 1 -606 -2 -617 -6z m375 -1081 l0
-160 -155 0 -155 0 0 160 0 160 155 0 155 0 0 -160z"/>
<path d="M273 2404 c-19 -14 -37 -40 -43 -62 -5 -20 -10 -128 -10 -239 l0
-203 -69 0 c-59 0 -74 -4 -99 -25 -50 -42 -53 -63 -50 -289 l3 -208 37 -34 38
-34 211 0 c200 0 213 1 241 21 51 37 58 68 58 274 0 205 -7 237 -57 273 -21
15 -48 22 -94 24 l-64 3 -3 187 -2 186 179 4 c205 3 221 9 221 79 0 65 -13 69
-255 69 -210 0 -210 0 -242 -26z m167 -799 l0 -145 -145 0 -145 0 0 145 0 145
145 0 145 0 0 -145z"/>
<path d="M4382 2414 c-30 -21 -31 -83 -1 -110 19 -17 41 -19 195 -22 l174 -4
-2 -186 -3 -187 -64 -3 c-46 -2 -73 -9 -94 -24 -50 -36 -57 -68 -57 -273 0
-206 7 -237 58 -274 28 -20 41 -21 241 -21 l211 0 38 34 37 34 3 208 c3 226 0
247 -50 289 -25 21 -40 25 -99 25 l-69 0 0 203 c0 111 -5 219 -10 239 -7 23
-24 48 -44 63 -33 25 -34 25 -237 25 -169 0 -208 -3 -227 -16z m588 -809 l0
-145 -145 0 -145 0 0 145 0 145 145 0 145 0 0 -145z"/>
</g>
</svg>
