<?xml version="1.0" standalone="no"?>
<!DOCTYPE svg PUBLIC "-//W3C//DTD SVG 20010904//EN"
 "http://www.w3.org/TR/2001/REC-SVG-20010904/DTD/svg10.dtd">
<svg version="1.0" xmlns="http://www.w3.org/2000/svg"
 width="512.000000pt" height="512.000000pt" viewBox="0 0 512.000000 512.000000"
 preserveAspectRatio="xMidYMid meet">
<metadata>
Created by potrace 1.16, written by Peter Selinger 2001-2019
</metadata>
<g transform="translate(0.000000,512.000000) scale(0.100000,-0.100000)" stroke="none">
<path d="M255 4919 c-111 -35 -193 -115 -235 -225 -20 -54 -20 -70 -20 -1784
0 -1714 0 -1730 20 -1784 27 -71 69 -128 127 -171 102 -74 42 -69 979 -75
l841 -5 -24 -85 c-71 -250 -81 -276 -132 -332 -28 -31 -74 -66 -108 -83 l-58
-30 -338 -5 -339 -5 -19 -24 c-26 -32 -24 -77 6 -106 l24 -25 1581 0 1581 0
24 25 c30 29 32 74 6 106 l-19 24 -339 5 -338 5 -58 30 c-34 17 -80 52 -108
83 -51 56 -61 82 -132 332 l-24 85 841 5 c763 5 845 7 884 22 101 41 177 115
218 216 l24 57 0 1732 c0 1728 0 1732 -21 1788 -41 110 -134 196 -248 229 -49
14 -277 16 -2295 15 -2192 0 -2242 -1 -2301 -20z m4586 -166 c66 -34 105 -87
119 -162 6 -34 10 -523 10 -1352 l0 -1299 -2410 0 -2410 0 0 1299 c0 829 4
1318 10 1352 14 75 53 128 119 162 l55 27 2226 0 2226 0 55 -27z m129 -3222
c0 -136 -5 -273 -10 -302 -14 -75 -53 -128 -119 -161 l-55 -28 -2226 0 -2226
0 -55 28 c-66 33 -105 86 -119 161 -5 29 -10 166 -10 302 l0 249 2410 0 2410
0 0 -249z m-1936 -824 c62 -219 80 -267 122 -322 l34 -45 -631 0 -631 0 27 31
c45 54 70 117 126 316 l54 193 425 0 425 0 49 -173z"/>
<path d="M322 4620 l-22 -21 0 -564 0 -564 26 -20 c34 -27 64 -27 98 0 l26 20
0 505 0 504 2110 0 2110 0 0 -1120 0 -1120 -2110 0 -2110 0 0 503 0 504 -23
21 c-29 28 -76 28 -105 2 l-22 -21 0 -564 0 -564 26 -20 27 -21 2207 0 2207 0
27 21 26 20 0 1238 0 1238 -23 21 -23 22 -2215 0 -2215 0 -22 -20z"/>
<path d="M2480 1627 c-78 -25 -150 -129 -150 -217 0 -122 108 -230 230 -230
122 0 230 108 230 230 0 61 -23 114 -70 160 -65 65 -150 85 -240 57z"/>
</g>
</svg>
