<?xml version="1.0" standalone="no"?>
<!DOCTYPE svg PUBLIC "-//W3C//DTD SVG 20010904//EN"
 "http://www.w3.org/TR/2001/REC-SVG-20010904/DTD/svg10.dtd">
<svg version="1.0" xmlns="http://www.w3.org/2000/svg"
 width="512.000000pt" height="512.000000pt" viewBox="0 0 512.000000 512.000000"
 preserveAspectRatio="xMidYMid meet">
<metadata>
Created by potrace 1.16, written by Peter Selinger 2001-2019
</metadata>
<g transform="translate(0.000000,512.000000) scale(0.100000,-0.100000)"
fill="#000000" stroke="none">
<path d="M2488 4785 c-34 -34 -38 -64 -38 -330 0 -266 4 -296 38 -330 36 -36
109 -36 146 1 l26 27 0 302 0 302 -26 27 c-37 37 -110 37 -146 1z"/>
<path d="M1572 4500 c-34 -21 -52 -54 -52 -94 0 -25 264 -455 304 -494 25 -26
88 -32 124 -13 32 17 55 68 48 105 -7 34 -267 454 -301 486 -33 31 -83 35
-123 10z"/>
<path d="M3455 4510 c-11 -4 -29 -18 -41 -31 -40 -46 -284 -445 -290 -475 -7
-37 16 -88 48 -105 36 -19 99 -13 124 13 40 39 304 469 304 494 0 40 -19 73
-52 94 -35 21 -60 24 -93 10z"/>
<path d="M932 3938 c-82 -28 -103 -60 -498 -758 -207 -366 -389 -691 -405
-722 -24 -47 -29 -70 -29 -125 0 -85 23 -137 81 -187 63 -55 343 -204 397
-212 100 -15 207 35 257 121 15 25 29 45 31 45 17 0 89 -46 129 -83 l49 -44
-21 -27 c-62 -79 -75 -230 -28 -334 45 -100 163 -192 247 -192 15 0 18 -8 18
-50 0 -140 110 -278 248 -313 29 -7 50 -16 46 -20 -10 -10 16 -137 37 -179 43
-84 136 -157 220 -173 l36 -7 6 -64 c9 -115 79 -217 189 -276 37 -20 57 -23
148 -23 91 0 111 3 150 24 49 25 310 231 310 243 0 5 37 -21 83 -57 123 -98
227 -125 347 -89 66 20 116 51 158 98 35 40 72 107 72 130 0 22 11 25 60 16
62 -12 163 5 223 37 55 30 107 84 136 141 21 42 47 169 37 179 -4 4 17 13 46
20 141 36 248 174 248 320 0 35 3 43 18 43 84 0 202 92 247 192 47 104 34 255
-28 334 l-21 27 49 44 c40 37 112 83 129 83 2 0 16 -20 31 -45 50 -86 157
-136 257 -121 54 8 334 157 397 212 58 50 81 102 81 187 0 78 0 79 -125 301
-99 174 -120 195 -187 182 -51 -9 -83 -48 -83 -99 0 -34 17 -71 93 -203 50
-89 92 -170 92 -181 0 -27 -1 -27 -163 -117 -89 -50 -144 -75 -156 -71 -19 6
-801 1378 -801 1406 0 9 8 23 18 31 28 25 277 158 294 158 21 0 36 -23 128
-187 76 -134 103 -163 154 -163 58 0 106 48 106 107 0 44 -170 338 -224 389
-54 50 -114 69 -196 61 -51 -4 -82 -18 -227 -98 -176 -97 -214 -128 -244 -194
-20 -44 -25 -147 -10 -188 11 -27 12 -26 -182 -78 l-67 -18 -243 85 c-310 109
-329 112 -583 90 -465 -40 -550 -53 -649 -103 -27 -13 -61 -35 -75 -47 l-25
-23 -122 35 c-119 35 -121 36 -112 59 15 41 10 145 -10 188 -30 66 -68 97
-245 195 -164 90 -171 93 -240 96 -39 2 -86 -2 -104 -8z m232 -269 c144 -79
166 -95 166 -118 0 -28 -782 -1400 -801 -1406 -12 -4 -67 21 -156 71 -161 89
-163 91 -163 116 0 16 696 1260 766 1371 13 20 32 37 41 37 9 0 75 -32 147
-71z m1866 -414 c301 -108 307 -108 524 -46 81 24 152 39 156 34 4 -4 118
-206 255 -448 136 -242 256 -454 266 -472 l20 -31 -57 -32 c-31 -18 -84 -59
-118 -90 l-61 -57 -175 139 c-353 281 -722 553 -850 628 -139 81 -250 111
-413 111 -62 -1 -147 -7 -190 -16 -251 -48 -424 21 -469 189 -14 53 -4 70 57
97 60 26 136 38 410 64 355 34 351 34 645 -70z m-1466 -43 l129 -38 26 -81
c89 -273 334 -390 687 -327 180 32 306 19 433 -46 114 -57 459 -311 894 -657
311 -247 328 -265 307 -341 -17 -66 -84 -109 -148 -97 -21 4 -85 48 -183 126
-83 67 -164 125 -180 131 -36 12 -93 -5 -114 -35 -17 -25 -20 -89 -5 -118 6
-10 78 -73 160 -139 84 -68 157 -134 166 -152 50 -96 -58 -217 -156 -175 -19
8 -105 71 -191 139 -86 69 -166 128 -179 131 -89 23 -167 -86 -115 -160 8 -12
87 -79 175 -149 134 -107 162 -134 176 -170 15 -40 15 -44 -5 -88 -16 -38 -29
-51 -66 -67 -66 -29 -90 -18 -278 132 -89 71 -174 131 -188 134 -42 10 -96
-19 -116 -60 -28 -58 -6 -98 96 -182 105 -85 124 -110 124 -163 0 -51 -25 -88
-77 -114 -57 -28 -92 -16 -199 69 l-94 74 -5 59 c-10 102 -69 200 -152 252
l-33 20 25 50 c16 33 26 74 30 118 8 124 -39 226 -139 300 l-45 34 26 51 c21
44 25 66 25 142 0 108 -19 159 -89 233 -66 71 -144 104 -244 104 -42 0 -89 -5
-104 -11 -26 -10 -28 -8 -39 27 -27 91 -120 180 -218 208 -66 20 -176 15 -237
-10 -23 -10 -108 -70 -190 -135 l-149 -119 -61 58 c-34 31 -87 72 -118 90 -54
30 -56 33 -43 54 7 11 130 227 272 479 141 251 263 457 269 457 6 0 69 -17
140 -38z m83 -1052 c66 -40 82 -133 31 -187 -13 -14 -112 -97 -220 -184 -133
-107 -208 -160 -230 -164 -64 -12 -131 31 -148 96 -20 72 1 98 202 259 99 80
199 157 221 173 48 32 98 35 144 7z m461 -237 c31 -19 62 -72 62 -106 0 -15
-7 -41 -15 -58 -18 -34 -562 -474 -615 -496 -98 -42 -206 79 -156 176 20 39
577 487 621 500 35 10 70 5 103 -16z m136 -504 c56 -44 70 -110 36 -166 -25
-42 -407 -347 -453 -362 -31 -11 -43 -9 -82 8 -37 16 -50 29 -66 67 -20 44
-20 48 -5 89 14 36 45 65 232 213 211 169 216 172 263 172 34 0 56 -6 75 -21z
m116 -492 c43 -22 72 -76 67 -125 -6 -54 -14 -63 -165 -184 -117 -94 -125 -98
-171 -98 -81 0 -138 64 -128 142 7 50 16 61 165 180 112 89 127 98 165 98 23
0 53 -6 67 -13z"/>
<path d="M4534 3176 c-88 -88 13 -220 125 -162 31 17 51 54 51 97 0 46 -56 99
-105 99 -29 0 -45 -8 -71 -34z"/>
</g>
</svg>
