<?xml version="1.0" standalone="no"?>
<!DOCTYPE svg PUBLIC "-//W3C//DTD SVG 20010904//EN"
 "http://www.w3.org/TR/2001/REC-SVG-20010904/DTD/svg10.dtd">
<svg version="1.0" xmlns="http://www.w3.org/2000/svg"
 width="257.000000pt" height="255.000000pt" viewBox="0 0 257.000000 255.000000"
 preserveAspectRatio="xMidYMid meet">
<metadata>
Created by potrace 1.10, written by Peter Selinger 2001-2011
</metadata>
<g transform="translate(0.000000,255.000000) scale(0.050000,-0.050000)"
fill="#000000" stroke="none">
<path d="M2540 4355 c-2 -64 -76 -117 -220 -157 -831 -229 -1128 -954 -572
-1396 215 -172 284 -185 208 -39 -51 99 -76 345 -38 383 12 12 22 35 22 51 0
97 269 283 409 283 128 0 253 -122 156 -152 -255 -82 -424 -252 -460 -464 -11
-66 27 -275 57 -315 9 -12 22 -59 30 -105 7 -47 21 -90 31 -96 28 -17 20 -106
-17 -183 l-33 -71 58 -48 c142 -116 368 -204 340 -131 -35 88 -54 269 -47 422
6 109 2 169 -12 173 -12 4 -48 12 -80 19 -158 35 -203 191 -55 191 136 -1 219
-111 212 -280 -6 -146 35 -221 93 -169 29 27 38 62 38 157 0 180 84 290 220
291 164 1 121 -128 -64 -194 l-96 -34 0 -161 c0 -88 -15 -225 -33 -305 -42
-176 -37 -182 103 -125 213 86 301 172 240 233 -58 57 22 438 113 536 84 92
-52 471 -193 533 -211 95 -291 179 -218 232 93 68 425 -15 427 -107 1 -13 31
-59 68 -103 108 -130 113 -343 11 -487 -94 -132 -24 -127 164 11 235 172 318
323 318 575 0 426 -356 739 -1035 910 -14 3 -44 38 -67 77 -42 71 -78 91 -78
45z m222 -346 c94 -59 93 -45 10 -138 -37 -41 -77 -110 -90 -153 -35 -115
-111 -112 -145 7 -13 47 -51 119 -83 161 -67 86 -62 98 60 156 89 42 140 35
248 -33z m-533 -160 c71 -54 184 -203 166 -220 -5 -6 -45 -16 -88 -23 -42 -6
-130 -38 -195 -69 l-119 -58 -52 50 c-29 28 -81 56 -117 63 -79 16 -79 21 0
116 144 175 293 227 405 141z m938 -10 c97 -45 146 -86 222 -185 65 -86 64
-87 -16 -102 -37 -7 -88 -35 -113 -62 -46 -49 -48 -49 -89 -13 -50 44 -233
123 -287 123 -106 0 -50 103 126 234 74 54 55 53 157 5z m-1331 -383 c38 -38
28 -125 -21 -188 -38 -49 -44 -78 -40 -194 7 -162 -16 -162 -87 -1 -102 229
11 520 148 383z m1672 -66 c91 -91 84 -210 -25 -409 -36 -65 -63 -44 -63 48 0
51 -13 125 -30 164 -79 189 -2 317 118 197z m-774 -335 c119 -80 119 -84 -4
-153 -134 -76 -126 -76 -261 0 -88 50 -106 68 -88 90 38 45 226 146 248 132
12 -7 59 -38 105 -69z"/>
<path d="M1377 3716 c-187 -236 -235 -574 -108 -767 40 -61 39 -76 -2 -61 -43
17 -22 -167 29 -253 37 -62 306 -255 356 -255 98 0 281 -163 256 -227 -22 -59
102 -42 151 20 81 104 -2 255 -208 375 -228 134 -439 470 -464 740 -13 139 34
372 88 436 28 33 20 76 -14 76 -10 0 -47 -38 -84 -84z"/>
<path d="M3720 3721 c0 -10 22 -59 48 -109 178 -334 41 -679 -428 -1082 -229
-196 -240 -209 -240 -281 0 -119 142 -204 168 -101 12 50 118 125 312 224 301
152 497 411 367 485 -35 19 -33 24 21 81 107 112 36 515 -128 722 -59 74 -120
105 -120 61z"/>
<path d="M1300 2475 c0 -14 22 -59 50 -99 34 -51 42 -76 25 -82 -74 -25 101
-138 270 -173 243 -50 275 68 45 167 -44 18 -93 42 -110 53 -16 10 -62 36
-101 57 -40 22 -83 53 -98 71 -31 37 -81 41 -81 6z"/>
<path d="M3620 2339 c-115 -66 -223 -127 -239 -136 -44 -24 -69 -74 -55 -110
42 -108 514 63 486 176 -8 31 2 57 28 81 44 40 54 110 15 109 -14 0 -119 -55
-235 -120z"/>
<path d="M1500 2085 c0 -39 195 -233 287 -286 139 -79 173 -77 173 10 0 53 13
78 60 111 115 82 34 148 -162 131 -118 -10 -171 -6 -228 18 -82 34 -130 40
-130 16z"/>
<path d="M3149 2027 c-7 -20 -21 -55 -33 -76 -16 -29 -15 -41 4 -48 66 -22
104 -86 91 -157 -16 -81 12 -80 162 7 177 103 344 335 212 294 -71 -22 -345
-22 -390 0 -25 13 -38 7 -46 -20z"/>
<path d="M3027 1884 c-12 -19 -61 -46 -109 -60 -130 -39 -182 -79 -168 -125 8
-24 3 -39 -11 -39 -47 0 21 -55 132 -108 164 -78 305 -58 286 39 -7 35 -23 38
-170 32 -220 -10 -242 29 -28 48 179 16 212 37 182 117 -36 93 -88 137 -114
96z"/>
<path d="M2040 1870 c-35 -43 -9 -119 50 -147 63 -28 283 -31 300 -3 13 21 -1
28 -95 49 -30 6 -82 38 -115 71 -68 67 -103 74 -140 30z"/>
<path d="M2524 1816 c-36 -36 -29 -64 27 -117 54 -51 94 -43 138 29 41 67
-107 146 -165 88z"/>
<path d="M2015 1668 c-25 -25 -16 -102 15 -128 38 -32 192 -10 295 42 105 54
94 74 -40 71 -63 -2 -147 4 -185 13 -39 9 -77 10 -85 2z"/>
<path d="M2400 1578 c-38 -33 -116 -73 -173 -90 -113 -33 -150 -81 -94 -122
87 -64 209 -1 324 167 79 117 52 139 -57 45z"/>
<path d="M2478 1506 c-26 -42 -77 -109 -114 -150 -78 -86 -78 -143 0 -152 67
-8 148 108 175 252 24 124 -2 145 -61 50z"/>
<path d="M2700 1555 c0 -44 148 -214 198 -228 136 -37 162 93 28 143 -53 20
-120 53 -149 73 -63 44 -77 46 -77 12z"/>
<path d="M2620 1469 c0 -163 71 -269 179 -269 69 0 72 57 6 126 -33 35 -84
102 -113 149 -66 107 -72 106 -72 -6z"/>
<path d="M2540 1330 c-11 -29 -20 -58 -20 -65 0 -6 -15 -28 -33 -48 -30 -34
-30 -40 -2 -72 18 -19 38 -60 46 -90 21 -87 40 -82 97 28 47 90 50 107 24 135
-16 18 -35 57 -43 87 -19 77 -46 87 -69 25z"/>
</g>
</svg>
