<?xml version="1.0" standalone="no"?>
<!DOCTYPE svg PUBLIC "-//W3C//DTD SVG 20010904//EN"
 "http://www.w3.org/TR/2001/REC-SVG-20010904/DTD/svg10.dtd">
<svg version="1.0" xmlns="http://www.w3.org/2000/svg"
 width="512.000000pt" height="512.000000pt" viewBox="0 0 512.000000 512.000000"
 preserveAspectRatio="xMidYMid meet">
<metadata>
Created by potrace 1.16, written by Peter Selinger 2001-2019
</metadata>
<g transform="translate(0.000000,512.000000) scale(0.100000,-0.100000)" stroke="none">
<path d="M1346 5099 c-47 -37 -56 -68 -56 -192 l0 -114 -101 -32 c-56 -18
-143 -54 -194 -80 l-94 -48 -78 79 c-85 86 -125 105 -190 93 -31 -6 -61 -29
-171 -138 -143 -141 -161 -172 -147 -243 5 -30 25 -58 89 -124 l83 -85 -43
-80 c-24 -44 -60 -131 -80 -192 l-37 -113 -114 0 c-124 0 -155 -9 -192 -56
-20 -25 -21 -39 -21 -231 0 -172 3 -209 16 -233 31 -51 60 -60 193 -60 l120 0
11 -42 c20 -81 52 -163 99 -255 l47 -92 -73 -73 c-78 -78 -103 -118 -103 -168
0 -48 13 -65 144 -198 131 -134 157 -152 211 -152 51 0 80 18 164 103 l73 75
58 -34 c68 -40 179 -85 268 -110 72 -20 76 -32 37 -91 l-26 -37 3 -248 3 -248
38 -37 37 -38 164 -3 164 -3 13 -52 c22 -97 71 -222 130 -337 l59 -114 -99
-101 c-54 -55 -104 -110 -110 -122 -14 -28 -14 -93 0 -130 12 -31 277 -304
324 -333 17 -10 44 -19 60 -21 79 -6 84 -3 201 112 l113 112 33 -21 c107 -66
333 -159 432 -177 l36 -7 0 -150 c0 -134 2 -154 21 -188 38 -68 47 -70 321
-70 220 0 246 2 274 19 54 33 64 71 64 238 l0 149 73 18 c100 25 257 88 351
142 l80 45 100 -100 c56 -54 112 -104 124 -111 33 -16 104 -15 138 3 35 19
317 302 334 335 15 31 15 104 0 134 -7 12 -57 68 -111 124 l-100 100 45 80
c54 94 117 251 142 352 l18 72 149 0 c167 0 205 10 238 64 17 28 19 54 19 278
l0 246 -26 32 c-46 54 -68 60 -234 60 -136 0 -150 2 -150 18 0 40 -85 265
-140 371 l-60 115 110 111 c114 116 117 121 111 200 -2 17 -11 44 -21 60 -29
47 -302 312 -333 324 -37 14 -102 14 -130 0 -12 -6 -67 -56 -122 -110 l-101
-99 -114 59 c-115 59 -240 108 -337 130 l-52 13 -3 164 -3 164 -38 37 -37 38
-248 3 -248 3 -37 -26 c-59 -39 -71 -35 -91 38 -25 89 -72 203 -110 268 l-34
57 75 73 c41 41 81 86 89 101 17 32 18 91 3 121 -16 31 -249 266 -281 283 -67
35 -126 12 -226 -89 l-73 -73 -92 47 c-92 47 -174 79 -254 99 l-43 11 0 120
c0 133 -9 162 -60 193 -24 13 -61 16 -233 16 -192 0 -206 -1 -231 -21z m364
-239 c0 -173 17 -197 161 -236 99 -27 210 -74 290 -123 58 -36 104 -46 144
-31 17 6 66 47 110 91 l80 79 93 -93 92 -92 -71 -70 c-124 -123 -126 -145 -34
-330 36 -71 76 -170 90 -220 14 -49 33 -100 41 -113 17 -27 71 -52 109 -52
l25 0 0 -98 0 -99 -82 -22 c-111 -31 -215 -73 -327 -132 l-94 -50 -92 91 -93
92 -4 112 c-4 88 -11 125 -32 180 -86 224 -294 365 -536 366 -85 0 -183 -22
-220 -49 -36 -26 -39 -83 -6 -116 29 -29 48 -31 124 -9 40 12 78 15 133 11
202 -14 366 -177 377 -375 l4 -77 -184 -183 -183 -184 -75 4 c-168 10 -309
122 -361 287 -26 87 -24 170 7 256 39 107 41 129 10 159 -50 51 -109 29 -144
-53 -50 -116 -65 -247 -41 -363 20 -95 84 -214 154 -282 111 -110 248 -166
405 -166 l85 0 93 -93 93 -94 -50 -94 c-59 -112 -101 -216 -132 -327 l-22 -82
-99 0 -98 0 0 25 c0 39 -26 92 -53 110 -14 9 -67 28 -118 42 -52 15 -150 55
-218 90 -178 91 -203 88 -326 -36 l-70 -71 -92 92 -93 93 79 80 c117 118 123
148 50 272 -44 77 -88 185 -118 293 -34 121 -65 140 -226 140 l-105 0 0 130 0
130 113 0 c158 0 189 21 221 148 22 89 70 205 116 282 44 76 56 123 40 165 -6
17 -47 66 -91 110 l-79 80 93 93 92 92 80 -80 c117 -117 149 -122 285 -44 78
45 207 97 288 115 59 13 88 31 112 72 17 27 20 51 20 150 l0 117 130 0 130 0
0 -110z m1650 -1280 c0 -210 15 -233 181 -279 133 -38 232 -79 341 -142 153
-88 180 -82 328 66 l105 105 127 -127 128 -127 -104 -106 c-148 -149 -153
-175 -65 -329 62 -108 100 -201 139 -337 50 -171 70 -184 280 -184 l140 0 0
-180 0 -180 -132 0 c-73 0 -150 -5 -170 -10 -45 -13 -84 -57 -99 -113 -45
-169 -113 -335 -184 -447 -60 -95 -45 -142 91 -280 l104 -106 -128 -127 -127
-127 -95 96 c-137 138 -195 158 -291 98 -111 -70 -297 -146 -446 -184 -56 -14
-100 -53 -113 -98 -5 -20 -10 -99 -10 -174 l0 -138 -180 0 -180 0 0 145 c0
216 -13 235 -184 285 -136 39 -229 77 -337 139 -154 88 -180 83 -329 -65
l-106 -104 -127 128 -127 127 105 105 c148 148 154 175 66 328 -63 109 -104
208 -142 342 -46 165 -70 180 -286 180 l-133 0 0 180 0 180 142 0 c211 0 236
17 278 180 28 108 79 232 140 340 89 157 86 177 -58 323 l-106 108 127 126
126 127 108 -106 c146 -144 166 -147 323 -58 108 61 232 112 340 140 163 42
180 67 180 278 l0 142 180 0 180 0 0 -140z"/>
<path d="M3085 2899 c-521 -44 -924 -532 -866 -1049 30 -270 104 -391 195
-319 33 26 34 59 1 160 -37 117 -49 232 -35 337 54 415 389 714 800 714 237 0
425 -83 592 -261 168 -178 245 -432 204 -670 -95 -545 -678 -839 -1164 -586
-48 25 -116 70 -152 100 -53 45 -71 55 -101 55 -29 0 -43 -6 -58 -26 -48 -61
-16 -111 145 -219 101 -68 173 -101 293 -131 520 -133 1041 173 1177 691 36
136 38 336 6 468 -44 178 -132 335 -259 460 -212 209 -472 301 -778 276z"/>
<path d="M3059 2515 c-388 -88 -581 -507 -396 -860 42 -79 155 -192 234 -233
173 -91 363 -95 541 -11 201 93 332 304 332 534 0 81 -31 201 -72 278 -65 123
-212 242 -348 281 -81 24 -212 29 -291 11z m203 -156 c84 -18 158 -58 219
-118 247 -248 113 -664 -235 -724 -132 -22 -267 23 -367 122 -96 97 -144 239
-121 362 33 178 152 307 325 354 65 17 111 18 179 4z"/>
</g>
</svg>
